<?xml version="1.0" encoding="UTF-8" standalone="no"?>
<!-- Created with Inkscape (http://www.inkscape.org/) -->

<svg
   xmlns:dc="http://purl.org/dc/elements/1.1/"
   xmlns:cc="http://creativecommons.org/ns#"
   xmlns:rdf="http://www.w3.org/1999/02/22-rdf-syntax-ns#"
   xmlns:svg="http://www.w3.org/2000/svg"
   xmlns="http://www.w3.org/2000/svg"
   version="1.0"
   width="800"
   height="250"
   id="svg2">
  <metadata
     id="metadata15">
    <rdf:RDF>
      <cc:Work
         rdf:about="">
        <dc:format>image/svg+xml</dc:format>
        <dc:type
           rdf:resource="http://purl.org/dc/dcmitype/StillImage" />
        <dc:title></dc:title>
      </cc:Work>
    </rdf:RDF>
  </metadata>
  <defs
     id="defs4">
    <filter
       color-interpolation-filters="sRGB"
       id="filter3299">
      <feGaussianBlur
         stdDeviation="2.4039571"
         id="feGaussianBlur3301" />
    </filter>
  </defs>
  <g
     id="layer1">
    <text
       x="172.231"
       y="650.82654"
       id="text2396"
       xml:space="preserve"
       style="font-size:24px;font-style:normal;font-variant:normal;font-weight:normal;font-stretch:normal;text-align:start;line-height:100%;writing-mode:lr-tb;text-anchor:start;fill:#000000;fill-opacity:1;stroke:none;font-family:'4077th';-inkscape-font-specification:'4077th'"><tspan
         x="172.231"
         y="650.82654"
         id="tspan2398" /></text>
    <g
       transform="matrix(1.7462843,0,0,1.7462843,-180.51517,-890.45352)"
       id="g3303">
      <path
         d="m 288.56884,542.36275 c -4.06399,0.0988 -8.43471,1.99855 -11.15625,4.09375 -2.1099,1.62433 -3.67793,3.39543 -4.3125,5.5625 -0.63457,2.16707 0.0768,4.66693 1.78125,6.375 0.34125,0.33365 0.77833,0.55219 1.25,0.625 0.3671,0.0589 0.51346,0.077 0.4375,0.0625 0.9087,0.17321 1.76288,0.50849 2.59375,0.96875 -0.18125,0.22231 -0.31906,0.47674 -0.40625,0.75 l -13.125,42.53125 c -0.68207,2.01653 -1.39891,3.64663 -2.125,5.03125 -0.97446,1.34967 -1.90754,2.06612 -2.6875,2.34375 -1.2174,0.43336 -2.24707,1.38528 -2.84375,2.5 -0.58133,1.08604 -0.7954,2.29982 -0.875,3.625 l -0.0312,0 c -0.002,0.0211 0.002,0.0414 0,0.0625 -6e-4,0.0108 5.7e-4,0.0204 0,0.0312 -0.20959,2.39016 0.7978,4.73501 2.59375,6.3125 2.39971,2.1079 5.87733,2.41744 11.15625,2.46875 1.28302,0.0467 2.70433,-0.0553 4.46875,-0.28125 2.02035,-0.25873 3.92304,-0.98135 5.59375,-2.125 2.01336,-1.3782 3.08891,-3.76568 3.1875,-6.375 0.006,-0.0937 0.006,-0.18759 0,-0.28125 -0.11508,-1.45467 -0.3946,-2.71441 -1.0625,-3.84375 -0.6679,-1.12934 -1.9079,-2.05038 -3.25,-2.25 -0.20879,-0.0311 -0.11721,-0.0122 -0.15625,-0.0625 -0.0259,-0.0334 -0.0874,-0.3597 -0.15625,-0.625 l 1.59375,-5.46875 c 0.20299,0.06 0.41333,0.0916 0.625,0.0937 l 12.03125,0.0625 c 0.16095,0.27166 0.37302,0.76938 0.53125,1.34375 0.32284,1.17191 0.4654,2.71706 0.40625,3.53125 -0.12018,1.03988 -0.11188,0.83406 -0.59375,0.96875 -1.24227,0.34725 -2.29712,1.25329 -2.90625,2.34375 -0.60913,1.09046 -0.88946,2.3165 -1,3.6875 -0.003,0.0729 -0.003,0.14588 0,0.21875 0.027,1.95033 0.49527,3.7644 1.59375,5.21875 1.09848,1.45435 2.74117,2.41694 4.59375,2.875 3.25055,0.80378 7.51846,1.09613 12.875,0.96875 0.042,0.002 0.11371,-0.001 0.15625,0 1.48275,0.0498 3.24491,-0.0284 5.4375,-0.21875 2.50735,-0.21763 4.86427,-0.93582 6.96875,-2.1875 2.47682,-1.47321 3.84095,-4.25597 3.96875,-7.34375 0.001,-0.0417 0.001,-0.0833 0,-0.125 -0.0195,-1.08151 -0.11323,-2.03028 -0.40625,-2.9375 -0.29302,-0.90722 -0.88337,-1.92154 -2,-2.4375 -0.62388,-0.28818 -1.45552,-0.74244 -2.40625,-1.28125 0.0878,0.0497 -0.90888,-1.05542 -1.6875,-3.4375 l -16.09375,-55.375 c 2.8e-4,-0.0208 2.8e-4,-0.0417 0,-0.0625 -0.99841,-3.10217 -3.87703,-4.59559 -6.65625,-5.8125 -2.77922,-1.21691 -5.61059,-1.96302 -7.65625,-2.125 -0.0833,-0.005 -0.16673,-0.005 -0.25,0 z m -80.75,0.4375 c -0.88121,0.0246 -0.55197,0.0326 -0.9375,0.0312 -4.03326,-0.0145 -7.13479,0.34376 -9.53125,1.40625 -2.33795,1.0367 -4.20821,2.84035 -5.46875,5.1875 -0.0333,0.0508 -0.0646,0.10294 -0.0937,0.15625 l -0.875,1.9375 c -0.12785,0.2958 -0.19175,0.61528 -0.1875,0.9375 l 0,3 c -0.94664,-0.0554 -1.82925,0.47918 -2.21875,1.34375 l -10.9375,24.09375 -8.21875,-28.96875 c -0.0161,-0.0844 -0.037,-0.16791 -0.0625,-0.25 -1.14135,-2.79855 -2.42996,-4.99416 -4.15625,-6.53125 -2.43115,-2.16427 -5.92859,-2.33804 -11.1875,-2.3125 -0.50455,-0.008 -0.98829,-0.0105 -1.5,0 -3.51657,0.0725 -6.81076,0.59579 -9.90625,1.625 -3.8501,1.2803 -6.49346,4.34352 -6.75,8.15625 -0.0103,0.12479 -0.0103,0.25021 0,0.375 0.21222,2.24736 1.20876,4.32447 2.90625,5.65625 0.38667,0.29518 0.85738,0.45938 1.34375,0.46875 0.42267,0.0133 0.81286,0.0502 1.21875,0.0937 0.21459,0.023 0.4139,0.12079 0.625,0.15625 -0.15139,0.4797 -0.1404,0.99593 0.0312,1.46875 l -0.15625,46.25 c -0.27996,2.54006 -1.11105,3.59987 -0.90625,3.46875 -0.8639,0.55313 -1.67154,0.94917 -2.40625,1.21875 -1.10861,0.40683 -1.93385,1.38445 -2.34375,2.34375 -0.4099,0.9593 -0.55624,1.97267 -0.59375,3.09375 -0.007,0.10404 -0.007,0.20846 0,0.3125 0.35796,3.44394 2.86611,6.21738 6.3125,7.0625 2.84947,0.69877 5.3034,1.00204 7.46875,0.90625 0.0506,0.001 0.13612,-0.001 0.1875,0 1.42563,0.0289 3.11243,-0.0576 5.1875,-0.28125 2.33745,-0.25189 4.52843,-0.90672 6.5,-1.96875 2.30061,-1.2393 3.74511,-3.64035 3.875,-6.28125 0.003,-0.0729 0.003,-0.14588 0,-0.21875 -0.0446,-1.08843 -0.19404,-2.09151 -0.65625,-3.03125 -0.46221,-0.93974 -1.37298,-1.79719 -2.4375,-2.15625 -0.50112,-0.16898 -1.13326,-0.56161 -1.90625,-1.34375 0.0573,0.058 -0.8063,-1.8902 -0.875,-5.375 l 0,-11.96875 9.625,26.625 c 0.0724,0.17781 0.16689,0.3458 0.28125,0.5 0.49083,0.71645 0.95197,1.32199 1.625,1.84375 0.52623,0.40796 1.39269,0.66298 2.3125,0.625 l 0,0.125 c 0.19605,0.004 0.34413,-0.0988 0.53125,-0.125 0.0762,-0.0186 0.14254,0.0257 0.21875,0 l 0,-0.0312 c 0.94909,-0.19305 1.79973,-0.66319 2.40625,-1.28125 0.77084,-0.7855 1.36647,-1.73678 1.9375,-2.90625 l 6.125,-11.6875 c 0.26626,-0.52174 0.32219,-1.12575 0.15625,-1.6875 l -0.0625,-0.21875 c 0.66117,-0.14936 1.22203,-0.58431 1.53125,-1.1875 l 4.90625,-9.34375 -0.0312,3.9375 c -7e-5,0.0104 -7e-5,0.0208 0,0.0312 l 0,3.59375 c -0.0207,0.12393 -0.0311,0.24935 -0.0312,0.375 l -0.0312,4.53125 c -0.19759,0.59788 -0.58544,1.5568 -1.0625,2.4375 -0.51976,0.95952 -1.26581,1.80105 -1.28125,1.8125 -1.77846,1.31838 -2.85752,3.40589 -3.0625,5.6875 -0.009,0.11442 -0.009,0.22933 0,0.34375 0.17316,2.96013 2.03842,5.54685 4.78125,6.71875 2.39262,1.02236 5.01807,1.62361 7.8125,1.78125 2.53591,0.14308 4.48718,0.1712 5.96875,0.125 0.0388,-0.001 0.11817,0.001 0.15625,0 1.59753,0.046 3.618,-0.0176 6.1875,-0.1875 2.83562,-0.18743 5.46242,-0.80826 7.875,-1.90625 2.75759,-1.25508 4.58269,-3.93663 4.75,-6.96875 0.0103,-0.12479 0.0103,-0.25021 0,-0.375 -0.28256,-2.64159 -1.73585,-5.00012 -4.03125,-6.15625 -0.49266,-0.24811 -1.42106,-1.5625 -1.75,-4.84375 l 0.46875,-43.4375 c 0.48413,-1.22518 1.14487,-2.20347 2.0625,-2.96875 1.79415,-1.49626 2.8122,-3.7288 3,-6.21875 0.0121,-0.13515 0.0121,-0.2711 0,-0.40625 -0.36311,-3.98336 -3.03139,-7.13642 -6.84375,-8.125 -2.44047,-0.63267 -4.68416,-1.0064 -6.78125,-1.09375 -0.40786,-0.017 -0.78389,-0.007 -1.09375,0 z m 278.4375,0 c -1.46216,0.0567 -3.15295,0.2578 -5.125,0.5625 -2.83833,0.43873 -5.49967,1.38286 -7.875,2.875 -2.69136,1.69084 -4.2536,4.63675 -4.40625,7.9375 -0.002,0.0521 -0.002,0.10418 0,0.15625 0.0433,1.42335 0.4559,2.81549 1.34375,3.875 0.59852,0.71443 1.26994,1.3821 2.0625,1.9375 0.0604,0.0447 0.12298,0.0864 0.1875,0.125 0.57644,0.32222 0.87996,0.63124 1.09375,1.03125 -0.10946,-0.20486 0.1542,0.49266 0.28125,1.53125 0.12705,1.03859 0.24821,2.53233 0.3125,4.375 l -0.15625,35.3125 c -0.22714,3.09704 -0.82232,5.11963 -0.84375,5.15625 -0.33587,0.57392 -0.73518,0.93585 -1.21875,1.1875 -0.0645,0.0386 -0.12709,0.0803 -0.1875,0.125 -0.90693,0.59738 -1.72182,1.42605 -2.34375,2.4375 -0.74258,1.20772 -1.00656,2.57326 -1.03125,3.96875 -0.001,0.0417 -0.001,0.0833 0,0.125 0.12897,2.94627 1.48432,5.62288 3.84375,7.125 2.03582,1.29614 4.30597,2.06982 6.71875,2.40625 2.13155,0.29723 3.81679,0.47479 5.28125,0.4375 0.0344,-8.8e-4 0.0908,0.001 0.125,0 1.50716,0.0388 3.29095,-0.10171 5.53125,-0.40625 2.51645,-0.34207 4.8831,-1.18099 7,-2.5 2.15221,-1.34103 3.30113,-3.67491 3.6875,-6.25 0.2104,2.71308 1.34649,5.16706 3.5,6.5625 1.914,1.24033 4.06708,2.0034 6.34375,2.28125 2.03342,0.24818 3.72344,0.36415 5.125,0.3125 4.89752,-0.0523 8.40631,-0.48003 11.0625,-1.6875 2.36646,-1.0758 4.22573,-2.45206 5.03125,-4.5625 0.53433,-1.40015 0.81029,-2.74408 0.71875,-4.0625 -2e-4,-0.0216 2.7e-4,-0.041 0,-0.0625 -0.003,-0.0411 0.004,-0.084 0,-0.125 l -0.0312,0 c -0.0293,-1.46958 -0.21282,-2.80616 -1.125,-4 -0.61551,-0.80535 -1.35311,-1.48291 -2.1875,-2.09375 -0.66313,-0.53361 -0.97442,-1.02798 -1.125,-1.53125 -0.19468,-0.65035 -0.33878,-1.72867 -0.3125,-3.15625 l 0.3125,-39.96875 c 0.1897,-2.32656 0.75592,-3.92041 0.5625,-3.625 0.20659,-0.31551 0.47218,-0.52661 0.875,-0.71875 0.12086,-0.0625 0.2359,-0.13575 0.34375,-0.21875 1.05647,-0.7653 1.86784,-1.78686 2.40625,-2.9375 0.55459,-1.18522 0.80869,-2.52931 0.8125,-3.96875 6.4e-4,-0.0312 6.4e-4,-0.0625 0,-0.0937 -0.11946,-2.9703 -1.34644,-5.66573 -3.6875,-7.1875 -1.98155,-1.28782 -4.22031,-2.08644 -6.59375,-2.375 -2.10614,-0.25587 -3.83593,-0.36048 -5.28125,-0.3125 -4.95458,0.0642 -8.58862,0.55235 -11.25,1.90625 -2.30984,1.17517 -4.12253,2.63043 -4.8125,4.78125 -0.0848,0.26416 -0.11737,0.49689 -0.1875,0.75 -0.44753,-1.89061 -1.29353,-3.63256 -2.875,-4.71875 -1.75584,-1.20567 -3.75624,-1.97671 -5.875,-2.3125 -1.84821,-0.29271 -3.33814,-0.436 -4.65625,-0.40625 -0.0356,-9.6e-4 -0.0883,9.1e-4 -0.125,0 -0.36663,-0.009 -0.7781,-0.0183 -1.25,0 z m -94.40625,0.6875 c -13.84785,0.37804 -25.37495,11.11447 -26.75,24.46875 -0.009,0.11442 -0.009,0.22933 0,0.34375 0.36512,7.21366 3.74547,13.21045 8.34375,18 4.56554,4.75546 10.3409,8.40438 15.9375,11.28125 1.95364,1.16134 4.37525,3.97385 5.25,6.5625 0.43738,1.29432 0.49283,2.46515 0.21875,3.4375 -0.27408,0.97235 -0.84011,1.83593 -2.25,2.6875 -0.86576,0.52292 -1.57592,0.89104 -2.15625,1.09375 -0.28922,0.10227 -0.55491,0.26169 -0.78125,0.46875 -0.25706,-0.11176 -0.53247,-0.17532 -0.8125,-0.1875 -0.98637,-0.0266 -1.56625,-0.409 -2.46875,-1.75 -0.9025,-1.341 -1.8106,-3.57316 -2.71875,-6.25 -1.84645,-5.44252 -5.24142,-8.53114 -8.90625,-8.84375 -0.39266,-0.0335 -0.85219,-0.0622 -1.375,0 -3.01248,0.35851 -5.30569,3.01128 -5.75,6.3125 -3.3e-4,0.002 -0.0309,-0.002 -0.0312,0 -0.0386,0.13513 -0.0574,0.2708 -0.0937,0.40625 -0.002,0.0209 0.002,0.0416 0,0.0625 -1.47959,5.55998 -1.13528,11.35199 2.53125,16.34375 0.13266,0.17819 0.29056,0.33609 0.46875,0.46875 2.558,1.94043 7.61226,4.93616 11.59375,6 2.31256,0.61792 4.45712,1.00407 6.4375,1.21875 0.45263,0.0492 0.90964,-0.0379 1.3125,-0.25 0.38184,0.27784 0.84032,0.43066 1.3125,0.4375 0.14373,0.002 0.25376,-1.6e-4 0.3125,0 0.0312,6.4e-4 0.0625,6.4e-4 0.0937,0 4.23685,-0.16759 8.24878,-0.45872 11.875,-1.5 3.59831,-1.03326 6.85657,-2.89718 9.09375,-6.09375 0.0173,-0.0248 0.0453,-0.0376 0.0625,-0.0625 4.1796,-5.50272 5.47672,-11.24854 4.625,-16.625 -0.85547,-5.40014 -3.7166,-10.35635 -7.40625,-14.9375 -2.49106,-3.0929 -7.2335,-8.61758 -16.03125,-11.84375 -7.46865,-2.73877 -9.00979,-6.61894 -8.53125,-9.5625 0.47854,-2.94356 3.29091,-5.47211 7.15625,-5.1875 0.34082,0.0232 0.68252,-0.0301 1,-0.15625 0.25677,0.245 0.56704,0.42688 0.90625,0.53125 1.58714,0.48437 3.34247,1.43339 5.125,3.09375 1.59008,1.88833 3.0367,3.8057 4.34375,5.6875 1.58784,2.28634 3.61198,3.91958 6.0625,4.15625 0.11442,0.009 0.22933,0.009 0.34375,0 2.16042,-0.12247 4.06794,-1.61591 5.0625,-3.5625 0.92387,-1.80834 1.3628,-3.86048 1.375,-6.0625 6.4e-4,-0.0312 6.4e-4,-0.0625 0,-0.0937 -0.18865,-4.96574 -1.27034,-9.3143 -3.34375,-12.96875 -0.98664,-1.7388 -1.94841,-3.11328 -2.96875,-4.1875 -1.02034,-1.07422 -2.17948,-1.96736 -3.71875,-2.125 -0.12479,-0.0103 -0.25021,-0.0103 -0.375,0 -1.10512,0.0798 -2.18939,0.41963 -3.09375,1.03125 -0.17395,0.11767 -0.16255,0.0856 -0.25,0.125 -0.377,-0.11987 -1.42708,-0.43071 -3.25,-1.21875 -1.67495,-0.72389 -3.31224,-0.76479 -4.6875,-0.75 -0.40633,-4e-4 -0.80544,0.10747 -1.15625,0.3125 -0.35995,-0.21047 -0.77058,-0.31853 -1.1875,-0.3125 -0.3455,-0.005 -0.52287,0.002 -0.5625,0 -0.0625,-0.003 -0.12503,-0.003 -0.1875,0 z m -150.375,0.21875 c -0.37442,0.0155 -0.73928,0.12286 -1.0625,0.3125 l -7.09375,4.09375 c -0.56868,0.3318 -0.96679,0.89259 -1.09245,1.53888 -0.12567,0.6463 0.0333,1.3154 0.4362,1.83612 l 7,8.9375 -9.40625,-1.34375 c -0.65126,-0.0882 -1.30897,0.10813 -1.80541,0.53878 -0.49644,0.43064 -0.78363,1.05404 -0.78834,1.71122 l 0,7.46875 c -0.002,0.65034 0.27283,1.2708 0.75593,1.70618 0.48309,0.43538 1.1287,0.64451 1.77532,0.57507 l 9.1875,-1 -6.71875,8.5625 c -0.40291,0.52072 -0.56187,1.18982 -0.4362,1.83612 0.12566,0.64629 0.52377,1.20708 1.09245,1.53888 l 7.09375,4.09375 c 0.56031,0.33125 1.23521,0.40807 1.85563,0.21121 0.62042,-0.19687 1.12756,-0.64876 1.39437,-1.24246 l 4.40625,-9.9375 3.96875,9.84375 c 0.24706,0.61905 0.75189,1.09952 1.38239,1.31569 0.6305,0.21617 1.32393,0.14653 1.89886,-0.19069 l 7.09375,-4.09375 c 0.55444,-0.32758 0.94508,-0.87374 1.07595,-1.50428 0.13087,-0.63055 -0.0102,-1.28705 -0.38845,-1.80822 l -6.25,-8.5625 8.6875,0.9375 c 0.64662,0.0694 1.29223,-0.13969 1.77532,-0.57507 0.4831,-0.43538 0.758,-1.05584 0.75593,-1.70618 l 0,-7.46875 c -0.005,-0.65718 -0.2919,-1.28058 -0.78834,-1.71122 -0.49644,-0.43065 -1.15415,-0.62693 -1.80541,-0.53878 l -8.90625,1.28125 6.53125,-8.9375 c 0.37828,-0.52117 0.51932,-1.17767 0.38845,-1.80822 -0.13087,-0.63054 -0.52151,-1.1767 -1.07595,-1.50428 l -7.09375,-4.09375 c -0.57493,-0.33722 -1.26836,-0.40686 -1.89886,-0.19069 -0.6305,0.21617 -1.13533,0.69664 -1.38239,1.31569 l -3.96875,9.875 -4.40625,-9.96875 c -0.3853,-0.85352 -1.25199,-1.38592 -2.1875,-1.34375 z m 92.53125,0 c -0.37442,0.0155 -0.73928,0.12286 -1.0625,0.3125 l -7.09375,4.09375 c -0.56868,0.3318 -0.96679,0.89259 -1.09245,1.53888 -0.12567,0.6463 0.0333,1.3154 0.4362,1.83612 l 7,8.9375 -9.40625,-1.34375 c -0.65126,-0.0882 -1.30897,0.10813 -1.80541,0.53878 -0.49644,0.43064 -0.78363,1.05404 -0.78834,1.71122 l 0,7.46875 c -0.002,0.65034 0.27283,1.2708 0.75593,1.70618 0.48309,0.43538 1.1287,0.64451 1.77532,0.57507 l 9.1875,-1 -6.71875,8.5625 c -0.40291,0.52072 -0.56187,1.18982 -0.4362,1.83612 0.12566,0.64629 0.52377,1.20708 1.09245,1.53888 l 7.09375,4.09375 c 0.56031,0.33125 1.23521,0.40807 1.85563,0.21121 0.62042,-0.19687 1.12756,-0.64876 1.39437,-1.24246 l 4.40625,-9.9375 3.96875,9.84375 c 0.24706,0.61905 0.75189,1.09952 1.38239,1.31569 0.6305,0.21617 1.32393,0.14653 1.89886,-0.19069 l 7.09375,-4.09375 c 0.55444,-0.32758 0.94508,-0.87374 1.07595,-1.50428 0.13087,-0.63055 -0.0102,-1.28705 -0.38845,-1.80822 l -6.25,-8.5625 8.6875,0.9375 c 0.64662,0.0694 1.29223,-0.13969 1.77532,-0.57507 0.4831,-0.43538 0.758,-1.05584 0.75593,-1.70618 l 0,-7.46875 c -0.005,-0.65718 -0.2919,-1.28058 -0.78834,-1.71122 -0.49644,-0.43065 -1.15415,-0.62693 -1.80541,-0.53878 l -8.90625,1.28125 6.53125,-8.9375 c 0.37828,-0.52117 0.51932,-1.17767 0.38845,-1.80822 -0.13087,-0.63054 -0.52151,-1.1767 -1.07595,-1.50428 l -7.09375,-4.09375 c -0.57493,-0.33722 -1.26836,-0.40686 -1.89886,-0.19069 -0.6305,0.21617 -1.13533,0.69664 -1.38239,1.31569 l -3.96875,9.875 -4.40625,-9.96875 c -0.3853,-0.85352 -1.25199,-1.38592 -2.1875,-1.34375 z m 105,0 c -0.37442,0.0155 -0.73928,0.12286 -1.0625,0.3125 l -7.09375,4.09375 c -0.56868,0.3318 -0.96679,0.89259 -1.09245,1.53888 -0.12567,0.6463 0.0333,1.3154 0.4362,1.83612 l 7,8.9375 -9.40625,-1.34375 c -0.65126,-0.0882 -1.30897,0.10813 -1.80541,0.53878 -0.49644,0.43064 -0.78363,1.05404 -0.78834,1.71122 l 0,7.46875 c -0.002,0.65034 0.27283,1.2708 0.75593,1.70618 0.48309,0.43538 1.1287,0.64451 1.77532,0.57507 l 9.1875,-1 -6.71875,8.5625 c -0.40291,0.52072 -0.56187,1.18982 -0.4362,1.83612 0.12566,0.64629 0.52377,1.20708 1.09245,1.53888 l 7.09375,4.09375 c 0.56031,0.33125 1.23521,0.40807 1.85563,0.21121 0.62042,-0.19687 1.12756,-0.64876 1.39437,-1.24246 l 4.40625,-9.9375 3.96875,9.84375 c 0.24706,0.61905 0.75189,1.09952 1.38239,1.31569 0.6305,0.21617 1.32393,0.14653 1.89886,-0.19069 l 7.09375,-4.09375 c 0.55444,-0.32758 0.94508,-0.87374 1.07595,-1.50428 0.13087,-0.63055 -0.0102,-1.28705 -0.38845,-1.80822 l -6.25,-8.5625 8.6875,0.9375 c 0.64662,0.0694 1.29223,-0.13969 1.77532,-0.57507 0.4831,-0.43538 0.758,-1.05584 0.75593,-1.70618 l 0,-7.46875 c -0.005,-0.65718 -0.2919,-1.28058 -0.78834,-1.71122 -0.49644,-0.43065 -1.15415,-0.62693 -1.80541,-0.53878 l -8.90625,1.28125 6.53125,-8.9375 c 0.37828,-0.52117 0.51932,-1.17767 0.38845,-1.80822 -0.13087,-0.63054 -0.52151,-1.1767 -1.07595,-1.50428 l -7.09375,-4.09375 c -0.57493,-0.33722 -1.26836,-0.40686 -1.89886,-0.19069 -0.6305,0.21617 -1.13533,0.69664 -1.38239,1.31569 l -3.96875,9.875 -4.40625,-9.96875 c -0.3853,-0.85352 -1.25199,-1.38592 -2.1875,-1.34375 z m 61.9375,11.6875 c 0.2017,0.81291 0.51875,1.57619 1.03125,2.25 0.6517,0.85714 1.4228,1.63647 2.3125,2.3125 0.0508,0.0333 0.10294,0.0646 0.15625,0.0937 0.003,0.005 0.028,0.0255 0.0312,0.0312 0.0844,0.15081 0.22075,0.5486 0.375,1 l 0,16.4375 -10.28125,0 c -0.0521,-0.002 -0.10418,-0.002 -0.15625,0 l 0,-15.6875 c 0.003,0.14704 0.16596,-0.1461 0.75,-0.5 0.70084,-0.42468 1.49331,-0.70366 2.34375,-1.25 0.0652,-0.0487 0.12783,-0.10087 0.1875,-0.15625 1.02252,-0.83399 1.90932,-1.79683 2.59375,-2.875 0.3213,-0.5061 0.47543,-1.08466 0.65625,-1.65625 z m -212.90625,25.21875 2.3125,8.59375 -4.84375,0 2.53125,-8.59375 z m 206.375,11.3125 c 0.0521,0.002 0.10418,0.002 0.15625,0 l 10.28125,0 0,15.375 c -0.7832,1.00902 -1.59279,1.82787 -2.46875,2.9375 -0.74123,0.93896 -1.29864,2.26886 -1.625,3.8125 -0.0629,-0.98997 -0.22913,-1.92345 -0.6875,-2.71875 -0.64942,-1.12679 -1.62159,-1.83428 -2.46875,-2.3125 -1.40376,-0.79242 -2.3683,-1.19447 -3.1875,-1.78125 l 0,-15.3125 z"
         id="path3296"
         style="font-size:99.60765076px;font-style:normal;font-variant:normal;font-weight:900;font-stretch:normal;text-align:start;line-height:100%;writing-mode:lr-tb;text-anchor:start;opacity:0.97000002;fill:#000000;fill-opacity:1;stroke:none;filter:url(#filter3299);font-family:Cooper Std Black;-inkscape-font-specification:Cooper Std Black Heavy" />
      <path
         d="m 285.53125,542.34375 c -3.24459,0.0789 -7.61136,1.93044 -9.8125,3.625 -3.77002,2.90239 -4.84307,5.96413 -2.3125,8.5 0.16546,0.0266 0.33394,0.0308 0.5,0.0625 1.91743,0.36548 3.85885,1.18753 5.5625,2.875 1.70363,1.6875 3.14886,4.18808 4.3125,7.90625 0.2802,0.8954 0.53288,1.82842 0.78125,2.90625 l 5.6875,20.96875 -8.46875,0 -3.21875,10.71875 12.84375,0.0625 c 1.77515,0.63253 2.57681,4.96484 2.40625,7.3125 -0.18756,1.62293 -0.93746,2.63312 -2.25,3 -1.31261,0.36691 -2.06253,1.70608 -2.25,4.03125 0.0445,3.21428 1.51926,5.17697 4.46875,5.90625 2.94939,0.72931 7.08673,1.0413 12.40625,0.90625 1.33608,0.0527 3.1074,-0.0273 5.3125,-0.21875 2.20497,-0.19138 4.20476,-0.80724 6,-1.875 1.79511,-1.06773 2.73712,-2.8924 2.84375,-5.46875 -0.0342,-1.9027 -0.37929,-3.01362 -1.09375,-3.34375 -0.7146,-0.33009 -1.57752,-0.78553 -2.5625,-1.34375 -0.98508,-0.55819 -1.90439,-2.13172 -2.75,-4.71875 L 297.84375,548.6875 c -1.14167,-3.5473 -9.12792,-6.09158 -12.3125,-6.34375 z m -80.75,0.4375 c -0.30211,0.007 -0.58517,0.0152 -0.875,0.0312 -3.93794,-0.0226 -6.83858,0.38516 -8.71875,1.21875 -1.88028,0.83376 -3.35254,2.22547 -4.40625,4.1875 l -0.875,1.9375 0,32.40625 0.0937,-0.1875 -0.0937,13.40625 0,3.96875 -0.0312,0 -0.0312,4.96875 c -0.48025,1.60491 -1.97784,4.71314 -3.25,5.65625 -1.27227,0.94314 -1.99751,2.29557 -2.15625,4.0625 0.13202,2.2569 1.27088,3.83764 3.40625,4.75 2.13525,0.91239 4.47755,1.44969 7.03125,1.59375 2.55357,0.14408 4.51911,0.17302 5.90625,0.125 1.47714,0.0487 3.53218,-0.0161 6.125,-0.1875 2.59268,-0.17137 4.94986,-0.74304 7.09375,-1.71875 2.14373,-0.97569 3.27579,-2.63575 3.40625,-5 -0.22391,-2.09331 -1.14563,-3.55118 -2.78125,-4.375 -1.63578,-0.82379 -2.63851,-3.05033 -3,-6.65625 l 0.46875,-44.1875 c 0.61211,-1.70609 1.57401,-3.1025 2.875,-4.1875 1.30082,-1.08484 2.03436,-2.62589 2.1875,-4.65625 -0.29853,-3.27495 -2.02585,-5.32136 -5.125,-6.125 -2.32448,-0.6026 -4.42716,-0.95272 -6.3125,-1.03125 -0.31422,-0.0131 -0.63539,-0.007 -0.9375,0 z m 278.46875,0 c -1.32415,0.0513 -2.95563,0.23469 -4.875,0.53125 -2.5592,0.39558 -4.89903,1.24271 -7,2.5625 -2.10097,1.31993 -3.21739,3.36142 -3.34375,6.09375 0.0322,1.058 0.31083,1.87009 0.8125,2.46875 0.50166,0.59881 1.04049,1.12164 1.625,1.53125 0.89501,0.50029 1.56589,1.1565 2,1.96875 0.4341,0.8124 0.71238,3.10958 0.84375,6.875 l -0.15625,35.5625 c -0.23547,3.21064 -0.62624,5.25058 -1.15625,6.15625 -0.53004,0.90571 -1.24588,1.605 -2.125,2.0625 -0.64589,0.42544 -1.20368,0.98273 -1.65625,1.71875 -0.45258,0.73607 -0.66755,1.68482 -0.6875,2.8125 0.10545,2.40897 1.03392,4.16882 2.78125,5.28125 1.74731,1.11245 3.68879,1.79763 5.8125,2.09375 2.12368,0.29613 3.79665,0.44627 5.03125,0.40625 1.28909,0.0414 3.05389,-0.10347 5.28125,-0.40625 2.22732,-0.30277 4.25913,-1.01313 6.09375,-2.15625 1.83455,-1.1431 2.7953,-2.95785 2.90625,-5.4375 0.4228,-4.83905 -3.77128,-4.0729 -6.40625,-6.75 l 0,-47.125 c 0.32059,-1.53727 3.22444,-2.60896 4.125,-3.1875 0.86368,-0.70444 1.55217,-1.45936 2.09375,-2.3125 0.54151,-0.85298 0.82684,-2.09579 0.84375,-3.71875 -0.0864,-2.1274 -0.84612,-3.71161 -2.3125,-4.71875 -1.46646,-1.00696 -3.12747,-1.65064 -4.9375,-1.9375 -1.81009,-0.28667 -3.25771,-0.40827 -4.375,-0.375 -0.37525,-0.0101 -0.77737,-0.0171 -1.21875,0 z m 30.96875,0 c -4.79061,0.0621 -8.21679,0.62191 -10.25,1.65625 -2.0333,1.03448 -3.25127,2.17507 -3.65625,3.4375 -0.40508,1.26258 -0.56287,2.25378 -0.46875,3 0.026,1.36186 0.31137,2.3938 0.84375,3.09375 0.5323,0.7001 1.14932,1.3236 1.875,1.875 0.51082,0.14864 1.00387,1.00521 1.46875,2.53125 l 0,19.125 -12.5625,0 0,9.84375 12.5625,0 0,18.5 c -2.1141,3.06053 -4.30493,3.69866 -4.40625,7.71875 0.0963,2.36963 0.94968,4.07992 2.5625,5.125 1.61273,1.0451 3.40217,1.66548 5.375,1.90625 1.97272,0.24077 3.57355,0.35585 4.75,0.3125 4.74787,-0.0507 8.13545,-0.55296 10.21875,-1.5 2.0832,-0.94703 3.37231,-2.0461 3.84375,-3.28125 0.47136,-1.23513 0.65017,-2.30373 0.5625,-3.21875 -0.0123,-1.29648 -0.23346,-2.24951 -0.6875,-2.84375 -0.45413,-0.59419 -1.06389,-1.14728 -1.8125,-1.6875 -0.96501,-0.77652 -1.58204,-1.6771 -1.875,-2.65625 -0.29308,-0.97908 -0.43546,-2.25687 -0.40625,-3.84375 l 0.3125,-40.125 c 0.19815,-2.4302 0.4938,-4.00984 0.9375,-4.6875 0.4436,-0.67749 1.04845,-1.18171 1.78125,-1.53125 0.73942,-0.53563 1.29777,-1.22961 1.6875,-2.0625 0.38966,-0.83275 0.59062,-1.81596 0.59375,-3 -0.0996,-2.47554 -0.97762,-4.28383 -2.65625,-5.375 -1.6787,-1.091 -3.56181,-1.74916 -5.625,-2 -2.0633,-0.25067 -3.71558,-0.35778 -4.96875,-0.3125 z m -364.8125,0.0312 c -3.32367,0.0685 -6.40092,0.55272 -9.25,1.5 -3.2561,1.08277 -4.98471,3.1424 -5.1875,6.15625 0.16845,1.78383 0.84541,3.13214 2.03125,4.0625 0.46648,0.0147 0.93155,0.0428 1.40625,0.0937 1.94082,0.20823 3.94594,0.86299 5.78125,2.40625 1.83531,1.54327 3.47515,3.9201 4.9375,7.53125 0.35214,0.86963 0.69599,1.78968 1.03125,2.84375 l 3.625,10 1.8125,5.125 12.25,33.875 c 0.83533,1.21932 1.52717,1.78509 2.09375,1.59375 0.98969,0.02 1.98984,-0.99369 3,-3.0625 l 6.15625,-11.75 L 164.0625,550.25 c -1.06455,-2.61023 -2.24856,-4.51757 -3.5625,-5.6875 -1.35259,-1.20411 -4.57316,-1.77469 -9.65625,-1.75 -0.4845,-0.008 -0.96269,-0.01 -1.4375,0 z m 239.40625,0.65625 c -12.69704,0.34662 -23.27756,10.23056 -24.53125,22.40625 0.66563,13.15065 12.15839,21.80346 23.15625,27.4375 5.05046,3.00224 10.53488,12.22498 3.25,16.625 -0.94911,0.57327 -1.79814,1.00335 -2.59375,1.28125 l 0,10 c 0.0916,0.001 0.19066,-2.4e-4 0.28125,0 8.36474,-0.33087 15.46917,-1.21111 19.25,-6.6875 7.82446,-10.23548 4.39842,-20.01447 -2.6875,-28.8125 -2.44417,-3.03468 -6.76375,-8.09327 -15.03125,-11.125 -16.19314,-5.93806 -10.36349,-19.91837 -0.4375,-19.1875 l 0,-11.9375 c -0.21968,-0.003 -0.43405,0.012 -0.65625,0 z m 3.0625,0 0,12.40625 c 1.97897,0.60395 4.07508,1.77837 6.125,3.71875 1.67027,1.97684 3.18952,3.96078 4.5625,5.9375 1.37291,1.97686 2.83234,3.03549 4.40625,3.1875 1.34862,-0.0765 2.41331,-0.85839 3.15625,-2.3125 0.74284,-1.454 1.1144,-3.11794 1.125,-5.03125 -0.17786,-4.68173 -1.20304,-8.66014 -3.0625,-11.9375 -1.85956,-3.27718 -3.49885,-5.01212 -4.90625,-5.15625 -0.74898,0.0541 -1.40972,0.27818 -1.96875,0.65625 -0.55911,0.37823 -1.06676,0.6023 -1.5625,0.65625 -0.64047,-0.13046 -2.01086,-0.64857 -4.125,-1.5625 -1.19166,-0.51502 -2.46359,-0.57633 -3.75,-0.5625 z m -153.40625,0.21875 -7.09375,4.09375 10.5,13.40625 -15.03125,-2.15625 0,7.46875 14.625,-1.59375 -10.09375,12.84375 7.09375,4.09375 6.59375,-14.875 6,14.875 7.09375,-4.09375 -9.3125,-12.71875 13.84375,1.46875 0,-7.46875 -14.25,2.03125 9.71875,-13.28125 -7.09375,-4.09375 -6,14.90625 -6.59375,-14.90625 z m 92.53125,0 -7.09375,4.09375 10.5,13.40625 -15.03125,-2.15625 0,7.46875 L 334,564.90625 323.90625,577.75 331,581.84375 l 6.59375,-14.875 6,14.875 7.09375,-4.09375 -9.3125,-12.71875 13.84375,1.46875 0,-7.46875 -14.25,2.03125 9.71875,-13.28125 -7.09375,-4.09375 -6,14.90625 L 331,543.6875 z m 105,0 -7.09375,4.09375 10.5,13.40625 -15.03125,-2.15625 0,7.46875 L 439,564.90625 428.90625,577.75 436,581.84375 l 6.59375,-14.875 6,14.875 7.09375,-4.09375 -9.3125,-12.71875 13.84375,1.46875 0,-7.46875 -14.25,2.03125 9.71875,-13.28125 -7.09375,-4.09375 -6,14.90625 L 436,543.6875 z m -248.5,11.75 -11.96875,26.375 5.1875,18.28125 6.78125,-12.9375 0,-31.71875 z m -46.53125,2.34375 c 0.037,0.0535 0.0906,0.10258 0.125,0.15625 l -0.15625,47.09375 c -0.30837,2.79779 -0.98018,4.52334 -1.96875,5.15625 -0.98858,0.63296 -1.93679,1.10472 -2.84375,1.4375 -0.90696,0.33283 -1.37402,1.44635 -1.4375,3.34375 0.28122,2.70559 1.79041,4.41398 4.5625,5.09375 2.77208,0.67979 5.11175,0.94729 7,0.84375 1.29297,0.0354 2.97705,-0.0565 5.0625,-0.28125 2.0854,-0.22473 3.96873,-0.77848 5.65625,-1.6875 1.68748,-0.90902 2.58827,-2.3888 2.6875,-4.40625 -0.0726,-1.77066 -0.58804,-2.80686 -1.53125,-3.125 -0.94326,-0.31808 -1.86929,-0.95187 -2.8125,-1.90625 -0.94325,-0.95436 -1.45871,-3.25805 -1.53125,-6.9375 l 0,-18.0625 -5.875,-16.28125 0,-0.0312 0,-0.0312 c -0.30764,-0.9672 -0.65789,-1.84267 -1,-2.6875 -1.36561,-3.37222 -2.80974,-5.38269 -4.25,-6.59375 -0.56051,-0.4713 -1.11609,-0.8227 -1.6875,-1.09375 z m 136.875,1.40625 -13.125,42.53125 c -0.73623,2.17665 -1.52454,4.02066 -2.34375,5.5625 -1.19116,1.69496 -2.49018,2.78832 -3.875,3.28125 -1.38483,0.49296 -2.12858,1.89836 -2.25,4.1875 -0.17982,1.77823 0.43383,3.25778 1.8125,4.46875 1.37865,1.211 4.59242,1.85673 9.6875,1.90625 1.0638,0.0387 2.4585,-0.0638 4.15625,-0.28125 1.69769,-0.21741 3.22388,-0.78104 4.59375,-1.71875 1.36981,-0.93767 2.10732,-2.47158 2.1875,-4.59375 -0.19676,-2.48719 -0.99789,-3.82642 -2.375,-4.03125 -1.37717,-0.20481 -2.14704,-1.21505 -2.34375,-3 l 0.0312,-0.125 9.71875,-33.0625 -1.46875,-5.46875 0,-0.0312 0,-0.0312 c -0.22791,-0.98902 -0.47776,-1.88013 -0.75,-2.75 -1.07022,-3.41961 -2.34139,-5.51565 -3.65625,-6.84375 z m 92.71875,35.59375 c -2.05053,0.24403 -3.67527,1.96372 -3.875,4.65625 -1.50091,5.25742 -1.22857,10.32061 2.09375,14.84375 2.2166,1.68145 7.50184,4.70915 10.8125,5.59375 2.20262,0.58854 4.23069,0.95429 6.09375,1.15625 l 0,-9.40625 c -3.62203,-0.0975 -5.42807,-4.06883 -7.28125,-9.53125 -1.66067,-4.89493 -4.48004,-7.10288 -6.9375,-7.3125 -0.30719,-0.0262 -0.61332,-0.0349 -0.90625,0 z"
         id="path3292"
         style="font-size:99.60765076px;font-style:normal;font-variant:normal;font-weight:900;font-stretch:normal;text-align:start;line-height:100%;writing-mode:lr-tb;text-anchor:start;fill:#cb9f15;fill-opacity:1;stroke:none;font-family:Cooper Std Black;-inkscape-font-specification:Cooper Std Black Heavy" />
      <path
         d="m 285.53792,542.33919 c -3.24458,0.0788 -7.61136,1.93044 -9.8125,3.625 -3.77001,2.90237 -4.84307,5.96413 -2.3125,8.5 0.16547,0.0265 0.33394,0.0308 0.5,0.0625 1.91744,0.36546 3.85885,1.18753 5.5625,2.875 1.70364,1.68748 3.14886,4.18808 4.3125,7.90625 0.28021,0.89538 0.53288,1.82842 0.78125,2.90625 l 5.6875,20.96875 -8.46875,0 -3.21875,10.71875 12.84375,0.0625 c 1.77516,0.63251 2.57681,4.96484 2.40625,7.3125 -0.18755,1.62291 -0.93746,2.63312 -2.25,3 -1.3126,0.36689 -2.06253,1.70608 -2.25,4.03125 0.0446,3.21426 1.51926,5.17697 4.46875,5.90625 2.9494,0.72929 7.08673,1.0413 12.40625,0.90625 1.33609,0.0527 3.1074,-0.0273 5.3125,-0.21875 2.20498,-0.1914 4.20476,-0.80724 6,-1.875 1.79512,-1.06775 2.73712,-2.8924 2.84375,-5.46875 -0.0342,-1.90272 -0.37929,-3.01362 -1.09375,-3.34375 -0.71459,-0.33011 -1.57752,-0.78553 -2.5625,-1.34375 -0.98507,-0.55821 -1.90439,-2.13172 -2.75,-4.71875 l -16.09375,-55.46875 c -1.14166,-3.54732 -9.12792,-6.09158 -12.3125,-6.34375 z m -80.75,0.4375 c -0.30211,0.007 -0.58517,0.0152 -0.875,0.0312 -3.93794,-0.0226 -6.83858,0.38516 -8.71875,1.21875 -1.88028,0.83374 -3.35254,2.22547 -4.40625,4.1875 l -0.875,1.9375 0,32.40625 0.0937,-0.1875 -0.0937,13.40625 0,3.96875 -0.0312,0 -0.0312,4.96875 c -0.48025,1.60489 -1.97784,4.71314 -3.25,5.65625 -1.27227,0.94312 -1.99751,2.29557 -2.15625,4.0625 0.13202,2.25688 1.27088,3.83764 3.40625,4.75 2.13525,0.91237 4.47755,1.44969 7.03125,1.59375 2.55357,0.14406 4.51911,0.17302 5.90625,0.125 1.47714,0.0487 3.53218,-0.0161 6.125,-0.1875 2.59268,-0.17139 4.94986,-0.74304 7.09375,-1.71875 2.14373,-0.97571 3.27579,-2.63575 3.40625,-5 -0.22391,-2.09333 -1.14563,-3.55118 -2.78125,-4.375 -1.63578,-0.82381 -2.63851,-3.05033 -3,-6.65625 l 0.46875,-44.1875 c 0.61211,-1.70611 1.57401,-3.1025 2.875,-4.1875 1.30082,-1.08486 2.03436,-2.62589 2.1875,-4.65625 -0.29853,-3.27497 -2.02585,-5.32136 -5.125,-6.125 -2.32448,-0.60262 -4.42716,-0.95272 -6.3125,-1.03125 -0.31422,-0.0131 -0.63539,-0.007 -0.9375,0 z m 278.46875,0 c -1.32414,0.0513 -2.95563,0.23469 -4.875,0.53125 -2.55919,0.39556 -4.89903,1.24271 -7,2.5625 -2.10096,1.31991 -3.21739,3.36142 -3.34375,6.09375 0.0322,1.05798 0.31083,1.87009 0.8125,2.46875 0.50167,0.59879 1.04049,1.12164 1.625,1.53125 0.89502,0.50027 1.56589,1.1565 2,1.96875 0.43411,0.81238 0.71238,3.10958 0.84375,6.875 l -0.15625,35.5625 c -0.23546,3.21062 -0.62624,5.25058 -1.15625,6.15625 -0.53003,0.90569 -1.24588,1.605 -2.125,2.0625 -0.64588,0.42542 -1.20368,0.98273 -1.65625,1.71875 -0.45257,0.73605 -0.66755,1.68482 -0.6875,2.8125 0.10546,2.40895 1.03392,4.16882 2.78125,5.28125 1.74732,1.11243 3.68879,1.79763 5.8125,2.09375 2.12369,0.29611 3.79665,0.44627 5.03125,0.40625 1.2891,0.0413 3.05389,-0.10347 5.28125,-0.40625 2.22733,-0.30279 4.25913,-1.01313 6.09375,-2.15625 1.83456,-1.14312 2.7953,-2.95785 2.90625,-5.4375 0.42281,-4.83907 -3.77128,-4.0729 -6.40625,-6.75 l 0,-47.125 c 0.3206,-1.53729 3.22444,-2.60896 4.125,-3.1875 0.86369,-0.70446 1.55217,-1.45936 2.09375,-2.3125 0.54152,-0.853 0.82684,-2.09579 0.84375,-3.71875 -0.0864,-2.12742 -0.84612,-3.71161 -2.3125,-4.71875 -1.46645,-1.00698 -3.12747,-1.65064 -4.9375,-1.9375 -1.81008,-0.28669 -3.25771,-0.40827 -4.375,-0.375 -0.37524,-0.0102 -0.77737,-0.0171 -1.21875,0 z m 30.96875,0 c -4.79063,0.0621 -8.21679,0.62191 -10.25,1.65625 -2.03329,1.03446 -3.25127,2.17507 -3.65625,3.4375 -0.40507,1.26256 -0.56287,2.25378 -0.46875,3 0.026,1.36184 0.31137,2.3938 0.84375,3.09375 0.53231,0.70008 1.14932,1.3236 1.875,1.875 0.51083,0.14862 1.00387,1.00521 1.46875,2.53125 l 0,19.125 -12.5625,0 0,9.84375 12.5625,0 0,18.5 c -2.11409,3.06051 -4.30493,3.69866 -4.40625,7.71875 0.0963,2.36961 0.94968,4.07992 2.5625,5.125 1.61274,1.04508 3.40217,1.66548 5.375,1.90625 1.97273,0.24075 3.57355,0.35585 4.75,0.3125 4.74785,-0.0507 8.13545,-0.55296 10.21875,-1.5 2.08318,-0.94705 3.37231,-2.0461 3.84375,-3.28125 0.47134,-1.23515 0.65017,-2.30373 0.5625,-3.21875 -0.0123,-1.2965 -0.23346,-2.24951 -0.6875,-2.84375 -0.45415,-0.59421 -1.06389,-1.14728 -1.8125,-1.6875 -0.96503,-0.77654 -1.58204,-1.6771 -1.875,-2.65625 -0.2931,-0.9791 -0.43546,-2.25687 -0.40625,-3.84375 l 0.3125,-40.125 c 0.19813,-2.43022 0.4938,-4.00984 0.9375,-4.6875 0.44358,-0.67751 1.04845,-1.18171 1.78125,-1.53125 0.7394,-0.53565 1.29777,-1.22961 1.6875,-2.0625 0.38964,-0.83277 0.59062,-1.81596 0.59375,-3 -0.0996,-2.47556 -0.97762,-4.28383 -2.65625,-5.375 -1.67872,-1.09102 -3.56181,-1.74916 -5.625,-2 -2.06332,-0.25069 -3.71558,-0.35778 -4.96875,-0.3125 z m -364.8125,0.0312 c -3.32367,0.0685 -6.40092,0.55272 -9.25,1.5 -3.2561,1.08275 -4.98471,3.1424 -5.1875,6.15625 0.16845,1.78381 0.84541,3.13214 2.03125,4.0625 0.46648,0.0147 0.93155,0.0428 1.40625,0.0937 1.94082,0.20821 3.94594,0.86299 5.78125,2.40625 1.83531,1.54325 3.47515,3.9201 4.9375,7.53125 0.35214,0.86961 0.69599,1.78968 1.03125,2.84375 l 3.625,10 1.8125,5.125 12.25,33.875 c 0.83533,1.2193 1.52717,1.78509 2.09375,1.59375 0.98969,0.02 1.98984,-0.99369 3,-3.0625 l 6.15625,-11.75 -15.03125,-52.9375 c -1.06455,-2.61025 -2.24856,-4.51757 -3.5625,-5.6875 -1.35259,-1.20413 -4.57316,-1.77469 -9.65625,-1.75 -0.4845,-0.008 -0.96269,-0.01 -1.4375,0 z m 239.40625,0.65625 c -12.69703,0.3466 -23.27756,10.23056 -24.53125,22.40625 0.66564,13.15063 12.15839,21.80346 23.15625,27.4375 5.05047,3.00222 10.53488,12.22498 3.25,16.625 -0.9491,0.57325 -1.79814,1.00335 -2.59375,1.28125 l 0,10 c 0.0916,0.001 0.19066,-2.4e-4 0.28125,0 8.36475,-0.33089 15.46917,-1.21111 19.25,-6.6875 7.82447,-10.2355 4.39842,-20.01447 -2.6875,-28.8125 -2.44416,-3.0347 -6.76375,-8.09327 -15.03125,-11.125 -16.19313,-5.93808 -10.36349,-19.91837 -0.4375,-19.1875 l 0,-11.9375 c -0.21967,-0.003 -0.43405,0.012 -0.65625,0 z m 3.0625,0 0,12.40625 c 1.97898,0.60393 4.07508,1.77837 6.125,3.71875 1.67028,1.97682 3.18952,3.96078 4.5625,5.9375 1.37292,1.97684 2.83234,3.03549 4.40625,3.1875 1.34863,-0.0765 2.41331,-0.85839 3.15625,-2.3125 0.74285,-1.45402 1.1144,-3.11794 1.125,-5.03125 -0.17785,-4.68175 -1.20304,-8.66014 -3.0625,-11.9375 -1.85955,-3.2772 -3.49885,-5.01212 -4.90625,-5.15625 -0.74897,0.0541 -1.40972,0.27818 -1.96875,0.65625 -0.5591,0.37821 -1.06676,0.6023 -1.5625,0.65625 -0.64046,-0.13048 -2.01086,-0.64857 -4.125,-1.5625 -1.19165,-0.51504 -2.46359,-0.57633 -3.75,-0.5625 z m -153.40625,0.21875 -7.09375,4.09375 10.5,13.40625 -15.03125,-2.15625 0,7.46875 14.625,-1.59375 -10.09375,12.84375 7.09375,4.09375 6.59375,-14.875 6,14.875 7.09375,-4.09375 -9.3125,-12.71875 13.84375,1.46875 0,-7.46875 -14.25,2.03125 9.71875,-13.28125 -7.09375,-4.09375 -6,14.90625 -6.59375,-14.90625 z m 92.53125,0 -7.09375,4.09375 10.5,13.40625 -15.03125,-2.15625 0,7.46875 14.625,-1.59375 -10.09375,12.84375 7.09375,4.09375 6.59375,-14.875 6,14.875 7.09375,-4.09375 -9.3125,-12.71875 13.84375,1.46875 0,-7.46875 -14.25,2.03125 9.71875,-13.28125 -7.09375,-4.09375 -6,14.90625 -6.59375,-14.90625 z m 105,0 -7.09375,4.09375 10.5,13.40625 -15.03125,-2.15625 0,7.46875 14.625,-1.59375 -10.09375,12.84375 7.09375,4.09375 6.59375,-14.875 6,14.875 7.09375,-4.09375 -9.3125,-12.71875 13.84375,1.46875 0,-7.46875 -14.25,2.03125 9.71875,-13.28125 -7.09375,-4.09375 -6,14.90625 -6.59375,-14.90625 z m -248.5,11.75 -11.96875,26.375 5.1875,18.28125 6.78125,-12.9375 0,-31.71875 z m -46.53125,2.34375 c 0.037,0.0535 0.0906,0.10258 0.125,0.15625 l -0.15625,47.09375 c -0.30837,2.79777 -0.98018,4.52334 -1.96875,5.15625 -0.98858,0.63294 -1.93679,1.10472 -2.84375,1.4375 -0.90696,0.33281 -1.37402,1.44635 -1.4375,3.34375 0.28122,2.70557 1.79041,4.41398 4.5625,5.09375 2.77208,0.67977 5.11175,0.94729 7,0.84375 1.29297,0.0353 2.97705,-0.0565 5.0625,-0.28125 2.0854,-0.22475 3.96873,-0.77848 5.65625,-1.6875 1.68748,-0.90904 2.58827,-2.3888 2.6875,-4.40625 -0.0726,-1.77068 -0.58804,-2.80686 -1.53125,-3.125 -0.94326,-0.3181 -1.86929,-0.95187 -2.8125,-1.90625 -0.94325,-0.95438 -1.45871,-3.25805 -1.53125,-6.9375 l 0,-18.0625 -5.875,-16.28125 0,-0.0312 0,-0.0312 c -0.30764,-0.96722 -0.65789,-1.84267 -1,-2.6875 -1.36561,-3.37224 -2.80974,-5.38269 -4.25,-6.59375 -0.56051,-0.47132 -1.11609,-0.8227 -1.6875,-1.09375 z m 136.875,1.40625 -13.125,42.53125 c -0.73622,2.17663 -1.52454,4.02066 -2.34375,5.5625 -1.19115,1.69494 -2.49018,2.78832 -3.875,3.28125 -1.38482,0.49294 -2.12858,1.89836 -2.25,4.1875 -0.17981,1.77821 0.43383,3.25778 1.8125,4.46875 1.37866,1.21098 4.59242,1.85673 9.6875,1.90625 1.06381,0.0387 2.4585,-0.0638 4.15625,-0.28125 1.6977,-0.21743 3.22388,-0.78104 4.59375,-1.71875 1.36982,-0.93769 2.10732,-2.47158 2.1875,-4.59375 -0.19675,-2.48721 -0.99789,-3.82642 -2.375,-4.03125 -1.37716,-0.20483 -2.14704,-1.21505 -2.34375,-3 l 0.0312,-0.125 9.71875,-33.0625 -1.46875,-5.46875 0,-0.0312 0,-0.0312 c -0.2279,-0.98904 -0.47776,-1.88013 -0.75,-2.75 -1.07021,-3.41963 -2.34139,-5.51565 -3.65625,-6.84375 z m 92.71875,35.59375 c -2.05052,0.24401 -3.67527,1.96372 -3.875,4.65625 -1.5009,5.2574 -1.22857,10.32061 2.09375,14.84375 2.21661,1.68143 7.50184,4.70915 10.8125,5.59375 2.20263,0.58852 4.23069,0.95429 6.09375,1.15625 l 0,-9.40625 c -3.62202,-0.0976 -5.42807,-4.06883 -7.28125,-9.53125 -1.66066,-4.89495 -4.48004,-7.10288 -6.9375,-7.3125 -0.30718,-0.0262 -0.61332,-0.0349 -0.90625,0 z"
         id="text2404"
         style="font-size:99.60765076px;font-style:normal;font-variant:normal;font-weight:900;font-stretch:normal;text-align:start;line-height:100%;writing-mode:lr-tb;text-anchor:start;fill:#cb9f15;fill-opacity:1;stroke:none;font-family:Cooper Std Black;-inkscape-font-specification:Cooper Std Black Heavy" />
    </g>
  </g>
</svg>
